<svg width="229" height="206" viewBox="0 0 229 206" fill="none" xmlns="http://www.w3.org/2000/svg">
<path d="M122.133 147.633C122.61 145.917 122.61 143.771 122.61 141.625C122.61 139.479 122.61 137.763 122.133 135.617L135.492 127.033C136.923 126.175 137.4 124.458 136.446 123.171L123.565 103.429C122.61 102.142 121.179 101.713 119.748 102.142L104.958 108.579C101.619 106.004 97.8021 104.288 93.5083 102.571L92.0771 87.9792C92.0771 86.6917 90.6458 85.4042 89.2146 85.4042H63.9292C62.4979 85.4042 61.0667 86.6917 61.0667 87.9792L59.1583 103C54.8646 104.288 51.525 106.433 47.7083 109.008L32.9188 103C31.4875 102.571 29.5792 103 29.1021 104.288L16.2208 124.029C15.2667 125.317 15.7438 127.033 17.175 127.892L30.5333 136.475C30.0563 138.192 30.0563 140.338 30.0563 142.483C30.0563 144.629 30.0563 146.346 30.5333 148.492L17.175 157.075C15.7438 157.933 15.2667 159.65 16.2208 160.938L29.1021 180.679C30.0563 181.967 31.4875 182.396 32.9188 181.967L47.7083 175.958C51.0479 178.533 54.8646 180.25 59.1583 181.967L60.5896 196.558C60.5896 197.846 62.0208 199.133 63.4521 199.133H88.7375C90.1688 199.133 91.6 197.846 91.6 196.558L93.0312 181.967C97.325 180.679 100.665 178.533 104.481 175.958L119.271 181.967C120.702 182.396 122.61 181.967 123.087 180.679L135.969 160.938C136.923 159.65 136.446 157.933 135.015 157.075L122.133 147.633ZM76.3333 163.083C62.975 163.083 52.4792 153.642 52.4792 141.625C52.4792 129.608 62.975 120.167 76.3333 120.167C89.6917 120.167 100.188 129.608 100.188 141.625C100.188 153.642 89.6917 163.083 76.3333 163.083Z" fill="#E65100"/>
<path d="M199.898 65.6625C200.375 63.5166 200.375 61.8 200.375 60.0833C200.375 58.3666 200.375 56.65 199.898 54.5041L211.825 46.7791C213.256 45.9208 213.256 44.6333 212.779 43.3458L200.852 24.8916C199.898 23.6041 198.467 23.175 197.035 24.0333L183.2 29.6125C179.86 27.4666 176.521 25.75 172.704 24.0333L171.273 10.7291C171.75 9.44165 170.796 8.58331 169.365 8.58331H145.987C144.556 8.58331 143.125 9.44165 143.125 10.7291L141.694 24.0333C137.877 25.3208 134.537 27.0375 131.198 29.6125L117.362 24.0333C115.931 23.6041 114.5 24.0333 113.546 24.8916L101.619 43.3458C100.665 44.6333 101.142 45.9208 102.573 46.7791L114.5 54.5041V60.0833C114.5 61.8 114.5 63.5166 114.977 65.6625L103.05 73.3875C101.619 74.2458 101.619 75.5333 102.096 76.8208L114.023 95.275C114.977 96.5625 116.408 96.9916 117.84 96.1333L131.675 90.5541C135.015 92.7 138.354 94.4166 142.171 96.1333L143.602 109.437C143.602 110.725 145.033 111.583 146.465 111.583H169.842C171.273 111.583 172.704 110.725 172.704 109.437L174.135 96.1333C177.952 94.8458 181.292 93.1291 184.631 90.5541L198.467 96.1333C199.898 96.5625 201.329 96.1333 202.283 95.275L214.21 76.8208C215.165 75.5333 214.687 74.2458 213.256 73.3875L199.898 65.6625ZM157.437 81.5416C144.079 81.5416 133.583 72.1 133.583 60.0833C133.583 48.0666 144.079 38.625 157.437 38.625C170.796 38.625 181.292 48.0666 181.292 60.0833C181.292 72.1 170.796 81.5416 157.437 81.5416Z" fill="#FFA000"/>
</svg>
