<svg width="467" height="393" viewBox="0 0 467 393" fill="none" xmlns="http://www.w3.org/2000/svg">
<path d="M357.48 253.865C357.496 271.672 353.751 289.286 346.486 305.577C339.221 321.869 328.596 336.479 315.292 348.471C311.591 351.81 307.701 354.937 303.639 357.837C298.426 361.558 292.939 364.887 287.223 367.795H287.163C285.945 368.428 284.707 369.03 283.459 369.613C282.889 369.89 282.33 370.147 281.751 370.404C278.136 372.044 274.429 373.516 270.628 374.82C267.632 375.808 264.556 376.796 261.451 377.606C243.538 382.32 224.813 383.192 206.532 380.164C204.365 379.809 202.228 379.404 200.101 378.939L198.304 378.534C192.878 377.28 187.541 375.676 182.327 373.733C179.298 372.607 176.329 371.372 173.42 370.028C172.292 369.504 171.163 368.971 170.055 368.418C169.296 368.042 168.547 367.657 167.798 367.272C147.481 356.715 130.365 341.005 118.202 321.751C106.039 302.497 99.2666 280.391 98.5784 257.695C97.8902 235 103.311 212.532 114.285 192.591C125.26 172.65 141.393 155.953 161.034 144.21C180.675 132.467 203.118 126.1 226.064 125.761C249.01 125.421 271.635 131.122 291.623 142.278C311.61 153.435 328.241 169.647 339.813 189.254C351.385 208.862 357.482 231.16 357.48 253.865Z" fill="url(#paint0_linear_0_25)"/>
<path d="M261.93 263.132C270.178 271.53 294.203 304.211 294.203 304.211L279.444 325.62L266.174 283.089L261.93 263.132Z" fill="url(#paint1_linear_0_25)"/>
<path d="M287.163 367.864C285.945 368.497 284.707 369.099 283.458 369.682C282.889 369.959 282.33 370.216 281.751 370.473C278.136 372.113 274.428 373.585 270.627 374.889C267.632 375.877 264.556 376.865 261.451 377.675C243.538 382.389 224.813 383.262 206.531 380.234C204.365 379.878 202.228 379.473 200.101 379.008C192.312 384.324 185.123 388.819 180.36 390.864L180.749 387.574L182.367 373.812L186.111 341.793L200.95 327.596L167.589 330.154C167.589 330.154 171.093 282.041 184.773 272.142C198.453 262.243 212.802 253.371 212.802 253.371C214.514 254.488 216.4 255.319 218.384 255.831C223.129 257.129 228.061 257.626 232.973 257.303C238.824 257.036 244.675 251.652 244.955 251.375C244.955 251.375 254.142 253.183 261.93 263.172C265.815 268.313 268.604 274.182 270.128 280.421C272.045 287.722 275.45 304.774 279.325 325.373C281.861 338.631 284.527 353.332 287.163 367.864Z" fill="url(#paint2_linear_0_25)"/>
<path d="M294.203 304.25L308.442 320.759L358.518 271.579L360.416 261.512L370.401 252.927L365.957 266.017V283.069C365.957 283.069 327.334 345.013 316.69 348.204C304.238 351.949 279.464 325.6 279.464 325.6L294.203 304.25Z" fill="url(#paint3_linear_0_25)"/>
<path d="M242.219 326.825L253.832 354.488L268.84 348.105L257.836 321.036L242.219 326.825Z" fill="#7E57C2"/>
<path d="M258.395 344.697C256.528 346.218 253.742 345.863 250.287 346.041C245.646 346.162 241.194 347.888 237.706 350.921C233.063 354.784 220.082 364.891 207.101 374.118C204.744 375.788 202.388 377.438 200.111 379.058C192.322 384.373 185.133 388.868 180.37 390.913C179.118 391.528 177.766 391.919 176.376 392.069C169.706 392.237 168.278 378.406 167.868 367.37C167.738 363.705 167.709 360.356 167.639 357.936C167.359 348.254 167.639 330.273 167.639 330.273L201 327.704L197.465 350.565L196.846 354.606V354.636L206.831 350.98L207.141 350.872L242.589 337.841L245.035 333.662L246.593 337.613H246.742L261.92 335.638C261.92 335.638 262.18 341.625 258.395 344.697Z" fill="url(#paint4_linear_0_25)"/>
<path d="M250.737 200.516C249.868 198.165 249.119 196.564 248.899 196.09V195.971C248.899 195.971 248.13 197.848 242.339 197.394C236.547 196.94 234.63 194.094 234.63 194.094C234.63 194.094 236.448 200.259 229.548 202.897C222.907 205.446 220.291 203.796 220.112 203.677C220.461 204.053 225.653 209.546 222.208 213.903C218.644 218.418 210.625 217.528 210.625 217.528V217.588C211.635 219.849 212.765 222.055 214.011 224.197C214.67 225.323 215.319 226.361 216.008 227.329V227.398C217.776 230.244 220.164 232.664 222.997 234.482C221.752 241.711 218.175 248.348 212.802 253.401C214.61 254.334 216.474 255.155 218.384 255.861C222.109 257.254 227.111 258.637 231.575 258.252C236.747 257.705 241.525 255.266 244.975 251.415L242.688 242.731L240.631 234.906C259.224 230.214 254.112 209.803 250.737 200.516ZM239.593 235.193L239.922 235.114L240.452 234.966C239.682 235.295 238.868 235.515 238.035 235.618C238.465 235.509 238.904 235.39 239.363 235.252L239.593 235.193Z" fill="url(#paint5_linear_0_25)"/>
<path d="M261.93 195.715C254.261 202.689 250.946 200.723 250.737 200.536V200.516C249.868 198.165 249.119 196.564 248.909 196.09L248.859 195.971C248.859 195.971 248.08 197.848 242.289 197.394C236.497 196.94 234.59 194.094 234.59 194.094C234.59 194.094 236.408 200.259 229.508 202.897C222.857 205.446 220.241 203.796 220.072 203.677C220.421 204.043 225.613 209.536 222.168 213.893C218.604 218.408 210.586 217.528 210.586 217.528V217.578C211.594 219.842 212.724 222.052 213.971 224.197C214.636 225.317 215.302 226.361 215.968 227.329V227.398C215.968 227.398 213.232 232.723 208.349 232.614C203.466 232.506 203.356 227.675 203.356 227.675C203.356 227.675 199.901 233.839 189.227 227.902C178.553 221.964 185.672 213.359 185.672 213.359C185.672 213.359 178.103 207.629 178.103 199.044C178.103 190.459 189.886 183.928 189.886 183.928C189.886 183.928 185.672 173.96 192.782 168.467C199.891 162.974 210.576 166.698 210.576 166.698C210.576 166.698 210.366 153.944 221.25 154.152C232.134 154.359 234.6 160.949 234.6 160.949C234.6 160.949 244.386 153.46 254.072 160.514C263.757 167.568 259.773 179.868 259.773 179.868C259.773 179.868 269.928 188.453 261.93 195.715Z" fill="url(#paint6_linear_0_25)"/>
<path opacity="0.15" d="M242.768 242.701C238.125 241.249 229.867 235.707 229.867 235.707C233.126 236.047 236.419 235.874 239.623 235.193L239.952 235.114L240.592 234.926H240.681L242.768 242.701Z" fill="black"/>
<path opacity="0.15" d="M205.453 298.046L200.95 327.685L197.415 350.546L189.187 357.313L207.091 350.882C207.091 350.882 202.447 337.762 205.453 298.046Z" fill="black"/>
<path opacity="0.15" d="M200.081 379.008C202.208 379.473 204.345 379.878 206.512 380.233C206.621 378.208 206.821 376.163 207.101 374.118L200.081 379.008Z" fill="black"/>
<g filter="url(#filter0_d_0_25)">
<path d="M156.805 10H103.413C96.0452 10 90.0725 15.9094 90.0725 23.199V76.0246C90.0725 83.3142 96.0452 89.2236 103.413 89.2236H156.805C164.172 89.2236 170.145 83.3142 170.145 76.0246V23.199C170.145 15.9094 164.172 10 156.805 10Z" fill="#56CCF2"/>
</g>
<rect x="109.268" y="50.5222" width="43.0244" height="22.7541" rx="4.4" fill="white"/>
<path d="M118.02 50.5222C118.02 50.5222 116.116 25.5127 130.772 25.5127C145.428 25.5127 144.372 50.5461 144.372 50.5461" stroke="white" stroke-width="1.9"/>
<g filter="url(#filter1_d_0_25)">
<path d="M432.928 209.726H379.537C372.169 209.726 366.196 215.635 366.196 222.925V275.75C366.196 283.04 372.169 288.949 379.537 288.949H432.928C440.296 288.949 446.269 283.04 446.269 275.75V222.925C446.269 215.635 440.296 209.726 432.928 209.726Z" fill="#F2C94C"/>
</g>
<path d="M418.731 244.504L424.342 227.22C425.018 225.859 424.894 224.277 424.013 223.02C423.132 221.762 421.615 221.001 419.986 221H414.757L413.015 224.518C411.738 227.042 408.981 228.657 405.948 228.657C402.915 228.657 400.157 227.042 398.881 224.518L397.138 221H392.912C391.07 221 389.355 221.859 388.359 223.28C387.363 224.702 387.224 226.49 387.989 228.027L393.217 244.504L385.375 267.687C384.577 270.101 385.068 272.719 386.7 274.75C388.332 276.78 390.912 277.985 393.661 278H418.347C421.095 277.982 423.673 276.776 425.303 274.746C426.932 272.716 427.422 270.1 426.625 267.687L418.731 244.504Z" fill="white"/>
<g filter="url(#filter2_d_0_25)">
<path d="M76.732 209.726H23.3404C15.9727 209.726 10 215.635 10 222.925V275.75C10 283.04 15.9727 288.949 23.3404 288.949H76.732C84.0998 288.949 90.0725 283.04 90.0725 275.75V222.925C90.0725 215.635 84.0998 209.726 76.732 209.726Z" fill="#F58A8A"/>
</g>
<path d="M66.0312 254.062C62.6693 254.066 59.3775 255.024 56.5393 256.826C53.7011 258.628 51.4332 261.199 50 264.24C48.5668 261.199 46.2989 258.628 43.4607 256.826C40.6225 255.024 37.3307 254.066 33.9688 254.062H24.6875V255.75C24.6875 265.52 32.636 273.469 42.4062 273.469H57.5938C67.364 273.469 75.3125 265.52 75.3125 255.75V254.062H66.0312ZM42.4062 270.094C35.0676 270.094 28.9986 264.555 28.1612 257.438H33.9688C41.3074 257.438 47.3764 262.977 48.2138 270.094H42.4062ZM57.5938 270.094H51.7862C52.6236 262.977 58.6926 257.438 66.0312 257.438H71.8388C71.0014 264.555 64.9324 270.094 57.5938 270.094Z" fill="white"/>
<path d="M40.8482 249.714C41.1673 251.612 42.0726 253.362 43.4371 254.719L43.9314 255.213H44.6304C46.5547 255.219 48.4324 254.621 50 253.505C51.5675 254.621 53.4452 255.219 55.3696 255.214H56.0686L56.5629 254.72C57.9273 253.363 58.8327 251.612 59.1518 249.715C61.0495 249.396 62.7997 248.49 64.1566 247.126L64.6509 246.631V245.933C64.6563 244.008 64.059 242.13 62.9427 240.562C64.059 238.995 64.6565 237.117 64.6513 235.193V234.494L64.1571 234C62.8001 232.635 61.0499 231.73 59.1523 231.411C58.8331 229.513 57.9278 227.763 56.5633 226.406L56.069 225.912H55.37C53.4456 225.906 51.5677 226.503 50 227.62C48.4325 226.503 46.5548 225.906 44.6304 225.911H43.9314L43.4371 226.405C42.0726 227.762 41.1673 229.513 40.8482 231.41C38.9505 231.729 37.2003 232.635 35.8433 233.999L35.3491 234.493V235.192C35.3437 237.117 35.941 238.995 37.0573 240.562C35.9409 242.13 35.3435 244.008 35.3487 245.932V246.631L35.8429 247.125C37.2 248.49 38.9503 249.395 40.8482 249.714V249.714ZM40.4541 239.369C39.5182 238.439 38.9236 237.22 38.7666 235.91C39.8041 235.094 41.0865 234.652 42.4062 234.656H44.0937V232.969C44.0899 231.649 44.5316 230.367 45.3471 229.329C46.6573 229.486 47.8762 230.081 48.8065 231.017L50 232.209L51.1932 231.016C52.1234 230.08 53.3423 229.486 54.6525 229.329C55.4684 230.366 55.9101 231.649 55.9062 232.969V234.656H57.5937C58.9134 234.652 60.1956 235.094 61.233 235.91C61.076 237.22 60.4814 238.439 59.5455 239.369L58.3531 240.562L59.5464 241.756C60.4823 242.686 61.0769 243.905 61.2339 245.215C60.1963 246.031 58.9137 246.473 57.5937 246.469H55.9062V248.156C55.91 249.476 55.4684 250.758 54.6529 251.796C53.3426 251.638 52.1238 251.044 51.1935 250.108L50 248.916L48.8067 250.108C47.8764 251.044 46.6576 251.639 45.3473 251.796C44.5316 250.758 44.0899 249.476 44.0937 248.156V246.469H42.4062C41.0866 246.473 39.8044 246.031 38.7669 245.215C38.924 243.905 39.5185 242.686 40.4544 241.756L41.6469 240.562L40.4541 239.369Z" fill="white"/>
<g filter="url(#filter3_d_0_25)">
<path d="M345.339 10H291.948C284.58 10 278.607 15.9094 278.607 23.199V76.0246C278.607 83.3142 284.58 89.2236 291.948 89.2236H345.339C352.707 89.2236 358.68 83.3142 358.68 76.0246V23.199C358.68 15.9094 352.707 10 345.339 10Z" fill="#6FCF97"/>
</g>
<path d="M331.399 21.6345C323.002 24.2453 314.008 24.2453 305.612 21.6345C304.679 23.8161 301.964 30.6737 301.964 37.0919C301.964 45.9151 304.814 70.5978 304.814 70.5978C304.814 70.5978 310.677 75.8098 318.509 75.9289C326.334 75.7949 332.197 70.5829 332.197 70.5829C332.197 70.5829 335.054 45.8853 335.054 37.077C335.054 30.6737 332.331 23.8161 331.399 21.6345Z" fill="white"/>
<defs>
<filter id="filter0_d_0_25" x="80.0725" y="0" width="110.072" height="109.224" filterUnits="userSpaceOnUse" color-interpolation-filters="sRGB">
<feFlood flood-opacity="0" result="BackgroundImageFix"/>
<feColorMatrix in="SourceAlpha" type="matrix" values="0 0 0 0 0 0 0 0 0 0 0 0 0 0 0 0 0 0 127 0" result="hardAlpha"/>
<feOffset dx="5" dy="5"/>
<feGaussianBlur stdDeviation="7.5"/>
<feColorMatrix type="matrix" values="0 0 0 0 0 0 0 0 0 0 0 0 0 0 0 0 0 0 0.15 0"/>
<feBlend mode="normal" in2="BackgroundImageFix" result="effect1_dropShadow_0_25"/>
<feBlend mode="normal" in="SourceGraphic" in2="effect1_dropShadow_0_25" result="shape"/>
</filter>
<filter id="filter1_d_0_25" x="356.196" y="199.726" width="110.072" height="109.224" filterUnits="userSpaceOnUse" color-interpolation-filters="sRGB">
<feFlood flood-opacity="0" result="BackgroundImageFix"/>
<feColorMatrix in="SourceAlpha" type="matrix" values="0 0 0 0 0 0 0 0 0 0 0 0 0 0 0 0 0 0 127 0" result="hardAlpha"/>
<feOffset dx="5" dy="5"/>
<feGaussianBlur stdDeviation="7.5"/>
<feColorMatrix type="matrix" values="0 0 0 0 0 0 0 0 0 0 0 0 0 0 0 0 0 0 0.15 0"/>
<feBlend mode="normal" in2="BackgroundImageFix" result="effect1_dropShadow_0_25"/>
<feBlend mode="normal" in="SourceGraphic" in2="effect1_dropShadow_0_25" result="shape"/>
</filter>
<filter id="filter2_d_0_25" x="0" y="199.726" width="110.072" height="109.224" filterUnits="userSpaceOnUse" color-interpolation-filters="sRGB">
<feFlood flood-opacity="0" result="BackgroundImageFix"/>
<feColorMatrix in="SourceAlpha" type="matrix" values="0 0 0 0 0 0 0 0 0 0 0 0 0 0 0 0 0 0 127 0" result="hardAlpha"/>
<feOffset dx="5" dy="5"/>
<feGaussianBlur stdDeviation="7.5"/>
<feColorMatrix type="matrix" values="0 0 0 0 0 0 0 0 0 0 0 0 0 0 0 0 0 0 0.15 0"/>
<feBlend mode="normal" in2="BackgroundImageFix" result="effect1_dropShadow_0_25"/>
<feBlend mode="normal" in="SourceGraphic" in2="effect1_dropShadow_0_25" result="shape"/>
</filter>
<filter id="filter3_d_0_25" x="268.607" y="0" width="110.072" height="109.224" filterUnits="userSpaceOnUse" color-interpolation-filters="sRGB">
<feFlood flood-opacity="0" result="BackgroundImageFix"/>
<feColorMatrix in="SourceAlpha" type="matrix" values="0 0 0 0 0 0 0 0 0 0 0 0 0 0 0 0 0 0 127 0" result="hardAlpha"/>
<feOffset dx="5" dy="5"/>
<feGaussianBlur stdDeviation="7.5"/>
<feColorMatrix type="matrix" values="0 0 0 0 0 0 0 0 0 0 0 0 0 0 0 0 0 0 0.15 0"/>
<feBlend mode="normal" in2="BackgroundImageFix" result="effect1_dropShadow_0_25"/>
<feBlend mode="normal" in="SourceGraphic" in2="effect1_dropShadow_0_25" result="shape"/>
</filter>
<linearGradient id="paint0_linear_0_25" x1="228.531" y1="139.657" x2="224.196" y2="392.147" gradientUnits="userSpaceOnUse">
<stop stop-color="white" stop-opacity="0"/>
<stop offset="1" stop-color="#64B5F6" stop-opacity="0.6"/>
</linearGradient>
<linearGradient id="paint1_linear_0_25" x1="252.154" y1="254.646" x2="287.28" y2="317.03" gradientUnits="userSpaceOnUse">
<stop stop-color="#E57373"/>
<stop offset="1" stop-color="#AD1457"/>
</linearGradient>
<linearGradient id="paint2_linear_0_25" x1="54765.3" y1="77155.5" x2="51070.8" y2="95585.1" gradientUnits="userSpaceOnUse">
<stop stop-color="#E57373"/>
<stop offset="1" stop-color="#AD1457"/>
</linearGradient>
<linearGradient id="paint3_linear_0_25" x1="383.951" y1="277.477" x2="287.724" y2="333.82" gradientUnits="userSpaceOnUse">
<stop stop-color="#FFF8E1"/>
<stop offset="1" stop-color="#FFCC80"/>
</linearGradient>
<linearGradient id="paint4_linear_0_25" x1="42135.4" y1="43270.3" x2="36949.5" y2="39736.1" gradientUnits="userSpaceOnUse">
<stop stop-color="#FFF8E1"/>
<stop offset="1" stop-color="#FFCC80"/>
</linearGradient>
<linearGradient id="paint5_linear_0_25" x1="260.512" y1="210.577" x2="207.936" y2="232.461" gradientUnits="userSpaceOnUse">
<stop stop-color="#FFF8E1"/>
<stop offset="1" stop-color="#FFCC80"/>
</linearGradient>
<linearGradient id="paint6_linear_0_25" x1="248.41" y1="153.776" x2="187.528" y2="236.92" gradientUnits="userSpaceOnUse">
<stop stop-color="#FFB74D"/>
<stop offset="1" stop-color="#F4511E"/>
</linearGradient>
</defs>
</svg>
