<svg width="54" height="54" viewBox="0 0 54 54" fill="none" xmlns="http://www.w3.org/2000/svg">
<path d="M43.0312 32.0625C39.6693 32.0657 36.3775 33.0241 33.5393 34.826C30.7011 36.6279 28.4332 39.1991 27 42.2402C25.5668 39.1991 23.2989 36.6279 20.4607 34.826C17.6225 33.0241 14.3307 32.0657 10.9688 32.0625H1.6875V33.75C1.6875 43.5202 9.63605 51.4688 19.4062 51.4688H34.5938C44.364 51.4688 52.3125 43.5202 52.3125 33.75V32.0625H43.0312ZM19.4062 48.0938C12.0676 48.0938 5.99864 42.5546 5.16122 35.4375H10.9688C18.3074 35.4375 24.3764 40.9766 25.2138 48.0938H19.4062ZM34.5938 48.0938H28.7862C29.6236 40.9766 35.6926 35.4375 43.0312 35.4375H48.8388C48.0014 42.5546 41.9324 48.0938 34.5938 48.0938Z" fill="white"/>
<path d="M17.8482 27.7143C18.1673 29.612 19.0726 31.3621 20.4371 32.7191L20.9314 33.2133H21.6304C23.5547 33.2187 25.4324 32.6214 27 31.5052C28.5675 32.6215 30.4452 33.219 32.3696 33.2138H33.0686L33.5629 32.7195C34.9273 31.3626 35.8327 29.6124 36.1518 27.7147C38.0495 27.3956 39.7997 26.4902 41.1566 25.1258L41.6509 24.6315V23.9325C41.6563 22.008 41.059 20.1301 39.9427 18.5625C41.059 16.9949 41.6565 15.1172 41.6513 13.1928V12.4939L41.1571 11.9996C39.8001 10.6351 38.0499 9.72979 36.1523 9.41062C35.8331 7.51293 34.9278 5.76279 33.5633 4.40582L33.069 3.91159H32.37C30.4456 3.90615 28.5677 4.50349 27 5.61976C25.4325 4.50341 23.5548 3.90593 21.6304 3.91117H20.9314L20.4371 4.40539C19.0726 5.76237 18.1673 7.51251 17.8482 9.4102C15.9505 9.72937 14.2003 10.6347 12.8433 11.9991L12.3491 12.4935V13.1924C12.3437 15.1169 12.941 16.9948 14.0573 18.5625C12.9409 20.13 12.3435 22.0077 12.3487 23.9321V24.631L12.8429 25.1254C14.2 26.4899 15.9503 27.3952 17.8482 27.7143V27.7143ZM17.4541 17.3693C16.5182 16.439 15.9236 15.2201 15.7666 13.9099C16.8041 13.0942 18.0865 12.6524 19.4062 12.6562H21.0937V10.9687C21.0899 9.6491 21.5316 8.36682 22.3471 7.32941C23.6573 7.48643 24.8762 8.08101 25.8065 9.01691L27 10.2093L28.1932 9.01617C29.1234 8.08028 30.3423 7.4857 31.6525 7.32867C32.4684 8.36624 32.9101 9.64881 32.9062 10.9687V12.6562H34.5937C35.9134 12.6524 37.1956 13.094 38.233 13.9096C38.076 15.2198 37.4814 16.4387 36.5455 17.369L35.3531 18.5625L36.5464 19.7557C37.4823 20.686 38.0769 21.9049 38.2339 23.2151C37.1963 24.0309 35.9137 24.4726 34.5937 24.4687H32.9062V26.1562C32.91 27.4758 32.4684 28.7581 31.6529 29.7955C30.3426 29.6385 29.1238 29.0439 28.1935 28.108L27 26.9156L25.8067 28.1084C24.8764 29.0443 23.6576 29.6389 22.3473 29.7959C21.5316 28.7584 21.0899 27.476 21.0937 26.1562V24.4687H19.4062C18.0866 24.4725 16.8044 24.0309 15.7669 23.2153C15.924 21.9051 16.5185 20.6862 17.4544 19.7559L18.6469 18.5625L17.4541 17.3693Z" fill="white"/>
</svg>
