<svg width="42" height="57" viewBox="0 0 42 57" fill="none" xmlns="http://www.w3.org/2000/svg">
<path d="M33.7308 23.5035L39.3424 6.21964C40.0179 4.85928 39.8937 3.27727 39.0128 2.01973C38.1319 0.762188 36.6149 0.00140153 34.9855 1.10866e-07H29.7573L28.0146 3.51753C26.7382 6.04194 23.9809 7.65715 20.9477 7.65715C17.9146 7.65715 15.1572 6.04194 13.8809 3.51753L12.1381 1.10866e-07H7.91196C6.0702 -0.000356322 4.3547 0.85875 3.35884 2.28016C2.36298 3.70156 2.22352 5.49008 2.9887 7.02707L8.21694 23.5035L0.374576 46.6872C-0.42283 49.1013 0.0684611 51.7191 1.69999 53.7496C3.33152 55.78 5.91188 56.9848 8.66134 57H33.3474C36.0953 56.9823 38.6731 55.7764 40.3026 53.7464C41.9321 51.7163 42.4224 49.1 41.6254 46.6872L33.7308 23.5035Z" fill="white"/>
</svg>
